# xmcd
#
# Track frame offsets:
#	150
#	32503
#	54642
#	74953
#	98044
#	117862
#	140777
#	156603
#	179954
#	232760
#	250443
#	273433
#	302509
#
# Disc length: 4370
#
# Revision: 3
# Processed by: cddbd v1.5.1PL0 Copyright (c) Steve Scherf et al.
# Submitted via: CDex 1.50beta10
# Normalized: r2:TRMNUM
#
DISCID=c611100d
DTITLE=Stevie Ray Vaughan - Force Of Nature Disc Two 10/14/1981 Fitzgerald's Club, Houston
DYEAR=1900
DGENRE=Folk-Rock
TTITLE0=The Sky Is Crying
TTITLE1=I'm Crying
TTITLE2=Crosscut Saw
TTITLE3=Shake For Me
TTITLE4=Wham!
TTITLE5=Hideaway
TTITLE6=So Excited
TTITLE7=Pride And Joy
TTITLE8=Tin Pan Alley
TTITLE9=Love Struck Baby
TTITLE10=May I Have A Talk With You
TTITLE11=Little Wing
TTITLE12=Manic Depression 
EXTD=
EXTT0=
EXTT1=
EXTT2=
EXTT3=
EXTT4=
EXTT5=
EXTT6=
EXTT7=
EXTT8=
EXTT9=
EXTT10=
EXTT11=
EXTT12=
PLAYORDER=
